<svg width="75" height="17" viewBox="0 0 75 17" fill="none" xmlns="http://www.w3.org/2000/svg">
<path d="M16.334 3.18262C16.334 3.63835 16.1712 4.02083 15.8457 4.33008C15.5365 4.6556 15.154 4.81836 14.6982 4.81836H4.93262C4.62337 4.83464 4.36296 4.90788 4.15137 5.03809C3.95605 5.15202 3.80957 5.29036 3.71191 5.45312C3.61426 5.59961 3.56543 5.75423 3.56543 5.91699C3.56543 6.07975 3.61426 6.24251 3.71191 6.40527C3.80957 6.55176 3.95605 6.6901 4.15137 6.82031C4.36296 6.93424 4.62337 6.99935 4.93262 7.01562H11.8662C13.0055 7.04818 13.9414 7.31673 14.6738 7.82129C15.4225 8.30957 15.9515 8.87923 16.2607 9.53027C16.5863 10.165 16.749 10.8161 16.749 11.4834C16.749 12.1344 16.5863 12.7855 16.2607 13.4365C15.9352 14.0713 15.4062 14.641 14.6738 15.1455C13.9414 15.6338 13.0055 15.8779 11.8662 15.8779H11.7197C11.6221 15.8942 11.5244 15.9023 11.4268 15.9023H2.19824C1.74251 15.9023 1.35189 15.7477 1.02637 15.4385C0.717122 15.113 0.5625 14.7223 0.5625 14.2666C0.5625 13.8109 0.72526 13.4284 1.05078 13.1191C1.36003 12.7936 1.74251 12.6309 2.19824 12.6309H12.0127C12.3219 12.6471 12.5742 12.5902 12.7695 12.46C12.9811 12.3298 13.1357 12.1833 13.2334 12.0205C13.3311 11.8415 13.3799 11.6624 13.3799 11.4834C13.3799 11.3695 13.3311 11.2148 13.2334 11.0195C13.1357 10.8079 12.9811 10.637 12.7695 10.5068C12.5742 10.3766 12.3219 10.3034 12.0127 10.2871H5.0791C3.93978 10.2546 2.99577 9.99414 2.24707 9.50586C1.51465 9.01758 0.985677 8.46419 0.660156 7.8457C0.350911 7.21094 0.196289 6.56803 0.196289 5.91699C0.196289 5.28223 0.359049 4.6556 0.68457 4.03711C1.01009 3.40234 1.53906 2.84082 2.27148 2.35254C3.00391 1.86426 3.93978 1.60384 5.0791 1.57129H5.22559C5.32324 1.55501 5.4209 1.54688 5.51855 1.54688H14.6982C15.154 1.54688 15.5365 1.70964 15.8457 2.03516C16.1712 2.3444 16.334 2.72689 16.334 3.18262ZM24.6592 0.887695C25.2288 0.887695 25.7822 0.985352 26.3193 1.18066C26.8727 1.37598 27.4017 1.66081 27.9062 2.03516C27.9876 2.11654 28.0771 2.19792 28.1748 2.2793C28.2562 2.19792 28.3457 2.11654 28.4434 2.03516C28.9479 1.66081 29.4688 1.37598 30.0059 1.18066C30.5592 0.985352 31.1126 0.887695 31.666 0.887695C32.2357 0.887695 32.7891 0.985352 33.3262 1.18066C33.8796 1.37598 34.4004 1.66895 34.8887 2.05957C35.3932 2.43392 35.8327 2.93848 36.207 3.57324C36.5977 4.20801 36.793 4.96484 36.793 5.84375V14.6572C36.6953 15.6338 36.1582 16.1628 35.1816 16.2441C34.7259 16.2441 34.3271 16.0977 33.9854 15.8047C33.6598 15.4954 33.4971 15.113 33.4971 14.6572V6.03906C33.4971 5.64844 33.4238 5.32292 33.2773 5.0625C33.1309 4.78581 32.9681 4.57422 32.7891 4.42773C32.61 4.26497 32.4229 4.15104 32.2275 4.08594C32.0322 4.00456 31.8369 3.96387 31.6416 3.96387C31.4463 3.96387 31.251 4.00456 31.0557 4.08594C30.8766 4.15104 30.6976 4.26497 30.5186 4.42773C30.3395 4.57422 30.1768 4.78581 30.0303 5.0625C29.8838 5.32292 29.8024 5.64844 29.7861 6.03906V14.6572C29.6885 15.6338 29.1514 16.1628 28.1748 16.2441C27.7191 16.2441 27.3203 16.0977 26.9785 15.8047C26.653 15.4954 26.4902 15.113 26.4902 14.6572V6.03906C26.4902 5.64844 26.417 5.32292 26.2705 5.0625C26.124 4.78581 25.9613 4.57422 25.7822 4.42773C25.6032 4.26497 25.416 4.15104 25.2207 4.08594C25.0254 4.00456 24.8301 3.96387 24.6348 3.96387C24.4395 3.96387 24.2441 4.00456 24.0488 4.08594C23.8698 4.15104 23.6908 4.26497 23.5117 4.42773C23.3327 4.57422 23.1699 4.78581 23.0234 5.0625C22.877 5.32292 22.7956 5.64844 22.7793 6.03906V14.6572C22.6979 15.6338 22.1689 16.1628 21.1924 16.2441C20.7367 16.2441 20.3379 16.0977 19.9961 15.8047C19.6706 15.4954 19.5078 15.113 19.5078 14.6572V5.84375C19.5404 4.96484 19.7438 4.20801 20.1182 3.57324C20.4925 2.93848 20.932 2.43392 21.4365 2.05957C21.9411 1.66895 22.4619 1.37598 22.999 1.18066C23.5524 0.985352 24.1058 0.887695 24.6592 0.887695ZM47.6572 16.5127C46.8109 16.5127 45.9727 16.415 45.1426 16.2197C44.3288 16.0244 43.5475 15.7396 42.7988 15.3652C42.0501 14.9746 41.391 14.4619 40.8213 13.8271C40.2516 13.1924 39.9424 12.4355 39.8936 11.5566V10.5312V2.74316C39.8936 2.28743 40.0563 1.91309 40.3818 1.62012C40.7236 1.31087 41.1224 1.15625 41.5781 1.15625C42.5547 1.23763 43.0837 1.7666 43.165 2.74316V10.7998C43.1976 11.3044 43.3848 11.7275 43.7266 12.0693C44.0846 12.3949 44.4753 12.6553 44.8984 12.8506C45.3379 13.0459 45.7855 13.1924 46.2412 13.29C46.7132 13.3877 47.1852 13.4365 47.6572 13.4365C48.1292 13.4365 48.5931 13.3877 49.0488 13.29C49.5208 13.1924 49.9684 13.0459 50.3916 12.8506C50.8311 12.6553 51.2217 12.3949 51.5635 12.0693C51.9215 11.7275 52.1169 11.3044 52.1494 10.7998V2.74316C52.1494 2.28743 52.3122 1.91309 52.6377 1.62012C52.9795 1.31087 53.3783 1.15625 53.834 1.15625C54.8105 1.23763 55.3477 1.7666 55.4453 2.74316V10.5312V11.5566C55.3965 12.4355 55.0791 13.1924 54.4932 13.8271C53.9235 14.4619 53.2643 14.9746 52.5156 15.3652C51.7669 15.7396 50.9775 16.0244 50.1475 16.2197C49.3337 16.415 48.5036 16.5127 47.6572 16.5127ZM74.4883 3.18262C74.4883 3.63835 74.3255 4.02083 74 4.33008C73.6908 4.6556 73.3083 4.81836 72.8525 4.81836H63.0869C62.7777 4.83464 62.5173 4.90788 62.3057 5.03809C62.1104 5.15202 61.9639 5.29036 61.8662 5.45312C61.7686 5.59961 61.7197 5.75423 61.7197 5.91699C61.7197 6.07975 61.7686 6.24251 61.8662 6.40527C61.9639 6.55176 62.1104 6.6901 62.3057 6.82031C62.5173 6.93424 62.7777 6.99935 63.0869 7.01562H70.0205C71.1598 7.04818 72.0957 7.31673 72.8281 7.82129C73.5768 8.30957 74.1058 8.87923 74.415 9.53027C74.7406 10.165 74.9033 10.8161 74.9033 11.4834C74.9033 12.1344 74.7406 12.7855 74.415 13.4365C74.0895 14.0713 73.5605 14.641 72.8281 15.1455C72.0957 15.6338 71.1598 15.8779 70.0205 15.8779H69.874C69.7764 15.8942 69.6787 15.9023 69.5811 15.9023H60.3525C59.8968 15.9023 59.5062 15.7477 59.1807 15.4385C58.8714 15.113 58.7168 14.7223 58.7168 14.2666C58.7168 13.8109 58.8796 13.4284 59.2051 13.1191C59.5143 12.7936 59.8968 12.6309 60.3525 12.6309H70.167C70.4762 12.6471 70.7285 12.5902 70.9238 12.46C71.1354 12.3298 71.29 12.1833 71.3877 12.0205C71.4854 11.8415 71.5342 11.6624 71.5342 11.4834C71.5342 11.3695 71.4854 11.2148 71.3877 11.0195C71.29 10.8079 71.1354 10.637 70.9238 10.5068C70.7285 10.3766 70.4762 10.3034 70.167 10.2871H63.2334C62.0941 10.2546 61.1501 9.99414 60.4014 9.50586C59.6689 9.01758 59.14 8.46419 58.8145 7.8457C58.5052 7.21094 58.3506 6.56803 58.3506 5.91699C58.3506 5.28223 58.5133 4.6556 58.8389 4.03711C59.1644 3.40234 59.6934 2.84082 60.4258 2.35254C61.1582 1.86426 62.0941 1.60384 63.2334 1.57129H63.3799C63.4775 1.55501 63.5752 1.54688 63.6729 1.54688H72.8525C73.3083 1.54688 73.6908 1.70964 74 2.03516C74.3255 2.3444 74.4883 2.72689 74.4883 3.18262Z" fill="#4169E1"/>
</svg>
