<svg width="39" height="42" viewBox="0 0 39 42" fill="none" xmlns="http://www.w3.org/2000/svg">
<g id="g12">
<g id="g18">
<path id="path20" d="M29.0709 46.1108C38.0795 42.9675 37.9503 35.5246 37.9503 35.5246C38.0964 32.9976 36.9273 30.2075 36.9188 30.1966C36.9188 30.1966 36.8772 30.144 36.8359 30.0915C36.8229 29.9094 36.8094 29.7274 36.8094 29.7274C36.2626 22.2541 32.8686 19.1959 32.8686 19.1959C27.0717 12.4741 19.0456 12.9969 19.0456 12.9969C8.66513 12.7196 4.34077 20.625 4.34077 20.625C2.70564 23.4956 1.551 26.5753 1.41095 30.1257C0.0347584 32.7161 0.398472 35.9028 0.398472 35.9028C0.859554 41.9268 6.69592 45.2341 10.58 46.1866C10.58 46.1866 19.9174 49.3048 29.0709 46.1108Z" fill="white"/>
</g>
<g id="g22">
<path id="path24" d="M18.5539 13.342C8.85742 13.342 4.69216 20.7186 4.65053 20.7945C2.80374 24.0362 1.88722 27.0044 1.76374 30.1396L1.76057 30.22L1.72282 30.2913C0.416132 32.7505 0.745626 35.832 0.749154 35.8627C0.968582 38.7287 3.30256 44.0383 10.6643 45.8435C10.7843 45.883 20.0267 48.8933 28.9549 45.7775C32.5857 44.5107 35.1429 42.4043 36.5562 39.5168C37.6117 37.3602 37.5983 35.5484 37.5979 35.53C37.7302 33.2292 36.7403 30.6934 36.6123 30.3773L36.492 30.2242L36.4577 29.7533C35.9293 22.5312 32.665 19.4871 32.6322 19.4571L32.6019 19.426C26.9938 12.9233 19.1476 13.3434 19.0686 13.3491C18.8954 13.3441 18.7236 13.342 18.5539 13.342ZM20.1061 47.8921C14.6677 47.8921 10.531 46.542 10.4686 46.5208C8.16032 45.9564 5.78436 44.7485 3.97743 43.2153C1.61769 41.2129 0.25844 38.6937 0.0471253 35.9297C0.0330141 35.8094 -0.305654 32.6739 1.06207 30.032C1.20247 26.809 2.14827 23.7617 4.03458 20.4502C4.07585 20.3747 8.57484 12.3595 19.0552 12.6442C19.1053 12.6386 27.2795 12.1902 33.1222 18.9498C33.4203 19.2267 36.625 22.3686 37.1615 29.7018L37.1965 29.9787C37.2663 30.0673 38.4527 32.9537 38.3028 35.5448C38.3049 35.5978 38.3243 37.4901 37.2067 39.793C36.1794 41.909 33.9544 44.7806 29.1873 46.4439C26.0684 47.5323 22.9135 47.8921 20.1061 47.8921Z" fill="#BBBBBB"/>
</g>
<g id="g26">
<path id="path28" d="M14.8445 28.8389C14.6473 29.0453 14.5433 29.3226 14.5507 29.6189C14.5581 29.9142 14.6808 30.1961 14.8879 30.3925C15.0975 30.5915 15.3663 30.6899 15.6344 30.6899C15.9184 30.6899 16.2013 30.5795 16.4112 30.3594C16.6084 30.1527 16.7125 29.8754 16.7051 29.579C16.698 29.2838 16.5749 29.0019 16.3678 28.8054C15.9364 28.3962 15.253 28.4113 14.8445 28.8389Z" fill="#CCCCCC"/>
</g>
<g id="g30">
<path id="path32" d="M24.1592 28.9011C23.7277 28.4919 23.044 28.5074 22.6359 28.9346C22.439 29.141 22.3346 29.4179 22.3416 29.7146C22.3491 30.0099 22.4718 30.2918 22.6793 30.4886C22.8888 30.6872 23.1576 30.7856 23.4257 30.7856C23.7097 30.7856 23.9923 30.6749 24.2026 30.4551V30.4547C24.3998 30.2484 24.5042 29.9714 24.4968 29.6747C24.4894 29.3795 24.3662 29.0976 24.1592 28.9011Z" fill="#CCCCCC"/>
</g>
<g id="g34">
<path id="path36" d="M24.9538 4.65816L25.2033 3.27844C25.2421 3.06748 25.4541 2.92989 25.677 2.97117L27.3079 3.30031C27.5309 3.34194 27.6801 3.54655 27.6413 3.75751L27.3919 5.13723C27.3531 5.34819 27.1411 5.48578 26.9181 5.4445L25.2872 5.11501C25.0643 5.07373 24.915 4.86912 24.9538 4.65816ZM27.7468 9.56813L26.6472 9.29261L27.0261 7.63843L27.1174 7.56682C29.0429 8.06706 29.4264 7.2539 29.5841 6.39559L30.1407 3.222C30.3097 2.30371 29.9562 1.27572 28.6217 1.09016L25.0434 0.496077C23.7731 0.16764 23.0859 1.06722 22.9165 1.98586L22.2607 5.12524C22.0917 6.04387 22.3288 6.85173 23.9424 6.97768L24.249 7.08139L23.9096 8.75497L22.7172 8.52637C22.0388 8.38914 21.3774 8.83752 21.2412 9.5265C21.1047 10.2144 21.5435 10.8822 22.2205 11.0177L23.2284 11.302L23.1663 12.1847C22.6474 14.5741 23.0517 14.9314 23.9491 15.2295L24.0627 15.2436C24.885 15.3667 25.4915 15.0365 25.9653 12.9315L26.3272 11.9049L27.1753 12.0704C27.853 12.2298 28.5324 11.8026 28.6947 11.1147C28.8591 10.4194 28.4329 9.72406 27.7468 9.56813Z" fill="#CCCCCC"/>
</g>
<g id="g38">
<path id="path40" d="M25.5968 3.31683C25.5802 3.31683 25.5668 3.32424 25.5615 3.32777L25.3004 4.72265C25.298 4.73676 25.317 4.76252 25.3512 4.76887L26.9874 5.09942C27.0093 5.1026 27.0266 5.09378 27.0329 5.08954L27.294 3.69536C27.2968 3.68019 27.2778 3.65444 27.2435 3.64809L25.607 3.31789C25.6035 3.31718 25.6 3.31683 25.5968 3.31683ZM26.9987 5.80568C26.9504 5.80568 26.9021 5.8011 26.8537 5.79228L25.2172 5.46172C24.8094 5.38623 24.5328 4.99712 24.6065 4.5953L24.8559 3.21629C24.8912 3.02438 24.9995 2.85822 25.1614 2.74639C25.3308 2.63032 25.5368 2.58764 25.7411 2.62503L27.3776 2.95523C27.7858 3.03073 28.062 3.4202 27.9879 3.82201L27.7388 5.20067C27.7036 5.39258 27.5953 5.55909 27.433 5.67057C27.3042 5.75947 27.1536 5.80568 26.9987 5.80568ZM24.0269 14.8844L24.1052 14.894C24.543 14.9596 25.1276 15.0471 25.6208 12.8546L25.6324 12.8147L26.0953 11.5013L27.2425 11.7246C27.7434 11.8428 28.2341 11.5313 28.3513 11.0342C28.4098 10.7866 28.3686 10.5322 28.2352 10.3181C28.1054 10.1103 27.9043 9.96635 27.6686 9.91273L27.6609 9.91097L26.2258 9.55149L26.7098 7.43834L27.0372 7.18223L27.2062 7.22597C27.9456 7.41788 28.4776 7.41541 28.7873 7.21821C29.0148 7.07286 29.1496 6.80793 29.2371 6.33238L29.7927 3.16196C29.8781 2.69947 29.8037 2.27896 29.5846 1.97521C29.3747 1.68452 29.0343 1.50426 28.5732 1.44005L24.9858 0.84456C24.5497 0.733788 24.2008 0.771534 23.919 0.951451C23.5923 1.15994 23.3535 1.56035 23.2631 2.05071L22.6059 5.1982C22.5265 5.62894 22.5675 5.94644 22.7319 6.16058C22.9326 6.42128 23.3489 6.57827 23.9694 6.6266L24.0548 6.64424L24.6563 6.84709L24.1857 9.16766L22.6504 8.87345C22.4151 8.82582 22.178 8.87309 21.9794 9.00538C21.7748 9.14191 21.6354 9.35146 21.5867 9.59594C21.4883 10.0923 21.8037 10.5752 22.2895 10.6726L23.6001 11.0413L23.5108 12.2605C23.0226 14.5087 23.3947 14.6735 24.0269 14.8844ZM24.343 15.6196C24.2372 15.6196 24.1264 15.6105 24.01 15.5932L23.8375 15.5649C22.5643 15.142 22.3336 14.3708 22.8158 12.1356L22.856 11.5644L22.1247 11.3581C21.2844 11.1908 20.7207 10.3361 20.8946 9.4587C20.98 9.02902 21.2259 8.65966 21.5882 8.41836C21.9441 8.18129 22.371 8.09769 22.7869 8.18165L23.6329 8.34357L23.8399 7.32369C23.0405 7.24996 22.4948 7.00972 22.1724 6.59062C21.8792 6.20891 21.7945 5.70902 21.9138 5.06203L22.571 1.91454C22.6948 1.24073 23.0483 0.669935 23.5394 0.356668C23.9867 0.07127 24.537 0.00142002 25.1315 0.155231L28.6794 0.742959C29.3204 0.83186 29.8344 1.11549 30.1564 1.56211C30.4898 2.02355 30.6073 2.63597 30.4873 3.28685L29.9317 6.45727C29.8467 6.91694 29.6837 7.4835 29.1665 7.81299C28.728 8.09275 28.1188 8.14602 27.3106 7.97562L27.0679 9.03502L27.8288 9.22587C28.2479 9.32218 28.6046 9.57759 28.8339 9.94483C29.0674 10.3198 29.1401 10.7643 29.0378 11.1965C28.831 12.0714 27.9586 12.6182 27.0943 12.4146L26.5585 12.3102L26.3045 13.0299C25.8906 14.8559 25.3255 15.6196 24.343 15.6196Z" fill="#BBBBBB"/>
</g>
<g id="g42">
<path id="path44" d="M11.7121 11.9559L11.5128 11.0966C11.5078 10.9675 11.3897 10.8697 11.2584 10.8863L10.12 11.0278C9.35307 11.1227 8.64716 10.6944 8.5445 9.94757L8.54521 9.84738C8.44185 9.09949 8.9816 8.41687 9.74995 8.32373L11.0291 8.13323C11.1462 8.11595 11.2302 7.8122 11.2193 7.6972L10.9145 5.37592C10.8954 5.17554 10.7335 5.10428 10.6111 5.26479L10.1595 5.84335C10.1504 5.85534 9.93727 6.0596 9.92599 6.06948C9.37212 6.56584 8.70749 6.53938 8.18255 6.0028C7.67314 5.4821 7.66926 4.53066 8.17127 4.01102L10.979 0.803202C11.4962 0.26839 12.3464 0.199951 12.9542 0.644452L16.3035 3.4053C16.8789 3.82651 16.9879 4.76067 16.5455 5.30748C16.1515 5.79431 15.5126 5.8751 14.9619 5.55936C14.9513 5.55301 14.976 5.59182 14.9661 5.58405L14.148 4.98998C13.9907 4.86756 13.8637 4.9928 13.8877 5.18683L14.1576 7.49047C14.1724 7.60971 14.281 7.89652 14.4031 7.88452L15.737 7.75364C16.5201 7.67709 17.2229 8.13747 17.2987 8.90088C17.3738 9.65653 16.9092 10.3258 16.1335 10.3963L14.951 10.5939C14.8218 10.6055 14.7308 10.7212 14.752 10.8461L14.8786 11.8448C15.1464 13.8239 14.9044 14.7196 13.6023 14.9426C12.284 15.0353 12.0162 14.4003 11.7121 11.9559Z" fill="#CCCCCC"/>
</g>
<g id="g46">
<path id="path48" d="M10.8911 5.47867L10.8908 5.47937C10.8911 5.47902 10.8911 5.47902 10.8911 5.47867ZM15.0998 10.7869L15.1012 10.7986C15.1008 10.7947 15.1005 10.7908 15.0998 10.7869ZM15.013 10.9411L15.0088 10.9418H15.0091C15.0102 10.9418 15.0116 10.9418 15.013 10.9411ZM11.862 11.042L12.062 11.9123C12.3738 14.4188 12.6268 14.6601 13.5775 14.5906C14.438 14.4417 14.814 13.9983 14.5286 11.8922L14.402 10.8906C14.3776 10.7506 14.4175 10.5897 14.5138 10.4645C14.6112 10.3382 14.7586 10.2571 14.9188 10.2426L16.0752 10.0486C16.3578 10.0217 16.5744 9.91133 16.7278 9.72542C16.8996 9.51763 16.9776 9.23717 16.9476 8.9359C16.8944 8.40144 16.3878 8.04407 15.7711 8.1051L14.4376 8.23563C14.0316 8.2762 13.8375 7.78055 13.8075 7.53431L13.537 5.22784C13.5063 4.97984 13.6047 4.75794 13.7934 4.65034C13.9716 4.54874 14.1847 4.57203 14.3642 4.71137L15.1403 5.25501C15.551 5.49102 15.9962 5.42505 16.271 5.08567C16.4248 4.89588 16.4915 4.62636 16.4548 4.34554C16.4192 4.07002 16.2879 3.83119 16.095 3.69008L12.7294 0.916535C12.2786 0.587747 11.6281 0.639252 11.2323 1.04883L8.43649 4.24324C8.05266 4.64152 8.05725 5.37072 8.43472 5.7563C8.82984 6.15988 9.27575 6.17787 9.69026 5.80711C9.7079 5.79017 9.84866 5.65576 9.8924 5.61202L10.3327 5.04757C10.4724 4.86448 10.6858 4.78475 10.8869 4.8419C11.0964 4.90188 11.2414 5.09343 11.2654 5.34214L11.5688 7.65108C11.5903 7.87298 11.4743 8.42366 11.0809 8.48222L9.80174 8.67272C9.50893 8.70835 9.25917 8.84841 9.08983 9.0689C8.92791 9.2788 8.85841 9.53809 8.89439 9.79915L8.89792 9.8249L8.89722 9.92297C8.99141 10.5029 9.55903 10.7439 10.0766 10.6776L11.2146 10.5365C11.3758 10.5146 11.5395 10.565 11.6634 10.6702C11.7748 10.7647 11.8457 10.8984 11.862 11.042ZM13.4177 15.2993C11.8549 15.2997 11.6224 14.0903 11.3642 12.0178L11.186 11.2508L10.1633 11.3778C9.16639 11.5006 8.32042 10.9069 8.19448 9.996L8.19131 9.9706L8.19201 9.86864C8.13839 9.42802 8.25798 8.99199 8.53068 8.63815C8.81678 8.26668 9.23483 8.03102 9.7072 7.97352L10.8498 7.80348C10.8594 7.77243 10.8668 7.73857 10.8675 7.71881L10.6184 5.82862L10.4371 6.0604C10.4011 6.10838 10.1605 6.33275 10.1584 6.33451C9.46484 6.95575 8.58924 6.92365 7.93025 6.24984C7.28361 5.58873 7.27761 4.42809 7.91755 3.76593L10.7133 0.571166C11.3642 -0.1037 12.4123 -0.188719 13.1623 0.359499L16.5275 3.1334C16.8594 3.3754 17.094 3.78851 17.1547 4.25453C17.2161 4.72584 17.0937 5.19045 16.8196 5.52947C16.3786 6.07451 15.685 6.24137 15.0313 5.98349L14.9671 6.03394L14.7473 5.86108L14.282 5.52347L14.5078 7.44964C14.5099 7.46481 14.518 7.49092 14.5283 7.51773L15.7023 7.40272C16.7229 7.30324 17.5569 7.93189 17.6497 8.86605C17.6983 9.35641 17.5643 9.82102 17.2718 10.1749C16.9998 10.5044 16.6068 10.7076 16.1652 10.7478L15.1171 10.9238L15.2285 11.8005C15.4914 13.7432 15.3213 15.0065 13.6615 15.2905C13.5772 15.2965 13.4957 15.2993 13.4177 15.2993Z" fill="#BBBBBB"/>
</g>
<g id="g50">
<path id="path52" d="M29.9882 32.5063C30.0372 34.2392 28.667 35.6743 26.9282 35.7117C25.189 35.7491 23.7397 34.3743 23.6907 32.6414C23.642 30.9086 25.0119 29.4735 26.7507 29.4361C28.4896 29.3987 29.9391 30.7731 29.9882 32.5063Z" fill="#E9E9E9"/>
</g>
<g id="g54">
<path id="path56" d="M26.3287 31.2899C26.3392 31.6575 26.0486 31.9619 25.6796 31.9701C25.3105 31.9778 25.0033 31.6864 24.9927 31.3188C24.9825 30.9512 25.2732 30.6464 25.6422 30.6387C26.0108 30.6306 26.3184 30.9223 26.3287 31.2899Z" fill="white"/>
</g>
<g id="g58">
<path id="path60" d="M15.3935 32.4067C15.4404 34.0757 14.121 35.4583 12.446 35.4939C10.771 35.5302 9.37506 34.2063 9.32814 32.5369C9.28086 30.8679 10.6006 29.4857 12.2756 29.4497C13.9502 29.4138 15.3462 30.7377 15.3935 32.4067Z" fill="#E9E9E9"/>
</g>
<g id="g62">
<path id="path64" d="M14.2404 31.2326C14.2507 31.6002 13.9603 31.9047 13.5913 31.9124C13.2227 31.9205 12.9154 31.6288 12.9048 31.2612C12.8946 30.8936 13.1849 30.5892 13.5539 30.5814C13.9226 30.5733 14.2302 30.865 14.2404 31.2326Z" fill="white"/>
</g>
<g id="g66">
<path id="path68" d="M7.47306 17.1429C6.51068 17.8834 3.48455 18.1007 3.48455 18.1007C3.48455 18.1007 -0.0922745 17.9487 1.85612 21.0298C1.85612 21.0298 3.82039 23.9286 7.32595 22.5676C7.32595 22.5676 8.29433 22.1383 8.51623 21.4754" fill="white"/>
</g>
<g id="g70">
<path id="path72" d="M5.50979 23.2788C2.98919 23.2792 1.58125 21.2532 1.56432 21.2278C0.901445 20.1804 0.752925 19.3362 1.11593 18.7086C1.68003 17.7345 3.26189 17.7423 3.47743 17.7476C4.30505 17.6862 6.54378 17.4128 7.25816 16.8632C7.41268 16.7443 7.63387 16.7736 7.75276 16.9277C7.87164 17.0823 7.84271 17.3038 7.6882 17.4223C6.67114 18.2048 3.83056 18.4295 3.51024 18.4528C3.49719 18.4535 3.48308 18.4535 3.47038 18.4532C3.09396 18.439 2.04021 18.5188 1.72589 19.0631C1.45178 19.539 1.80738 20.2929 2.15451 20.8411C2.2226 20.9402 4.00731 23.4778 7.19819 22.2388C7.41268 22.1425 8.04133 21.783 8.18173 21.3632C8.24382 21.1791 8.4435 21.0799 8.62835 21.141C8.81321 21.2027 8.91269 21.4027 8.85096 21.5876C8.58708 22.375 7.58236 22.84 7.46877 22.89C6.75686 23.1666 6.10246 23.2788 5.50979 23.2788Z" fill="#BBBBBB"/>
</g>
<g id="g74">
<path id="path76" d="M1.74256 19.2511C1.74256 19.2511 3.9259 21.0188 7.99062 21.4958C8.10633 21.5092 7.94969 21.5808 7.8996 21.6764C7.43958 22.5556 4.89569 23.0657 3.33394 21.8391C3.33394 21.8391 1.65859 20.9388 1.74256 19.2511Z" fill="white"/>
</g>
<g id="g78">
<path id="path80" d="M31.2457 17.6891C32.3231 18.4303 35.509 18.461 35.509 18.461C35.509 18.461 39.2358 18.0517 37.4923 21.5421C37.4923 21.5421 35.715 24.835 31.9181 23.5907C31.9181 23.5907 30.864 23.1885 30.5684 22.4816" fill="white"/>
</g>
<g id="g82">
<path id="path84" d="M33.5678 24.2231C33.0327 24.2231 32.4467 24.1349 31.8078 23.9258C31.6695 23.8735 30.5865 23.4403 30.2422 22.6173C30.1671 22.4374 30.2521 22.231 30.4316 22.1559C30.6112 22.0814 30.8183 22.1654 30.8934 22.3453C31.0868 22.8074 31.7895 23.163 32.0438 23.2611C35.5042 24.3939 37.1648 21.4048 37.1814 21.3741C37.495 20.7462 37.7994 19.8766 37.4399 19.3587C37.0427 18.7865 35.9378 18.7695 35.5462 18.8115C35.5328 18.8129 35.518 18.8133 35.5049 18.8136C35.1677 18.8105 32.1786 18.759 31.0455 17.9793C30.885 17.8689 30.844 17.6495 30.9545 17.489C31.0652 17.3284 31.2847 17.2879 31.4448 17.3983C32.2502 17.9518 34.6205 18.0975 35.493 18.1081C35.7141 18.0873 37.3345 17.973 38.0178 18.954C38.4665 19.5982 38.396 20.5218 37.8075 21.6994C37.7871 21.7378 36.4063 24.2228 33.5678 24.2231Z" fill="#BBBBBB"/>
</g>
<g id="g86">
<path id="path88" d="M37.4852 19.8151C37.4862 20.1597 34.7169 22.3798 31.3024 22.7174C31.1814 22.7294 31.4078 22.8285 31.4981 22.9026C32.1839 23.4667 34.2474 24.0604 36.0638 22.7442C36.0638 22.7442 37.4922 21.8943 37.4852 19.8151Z" fill="white"/>
</g>
<g id="g90">
<path id="path92" d="M18.1917 32.2157C18.2365 32.6941 18.2372 32.8666 18.4453 33.3026C18.7593 33.9602 19.1558 34.3087 19.5728 34.3814C20.0011 34.4558 20.5027 34.0992 20.8788 33.4116C21.1719 32.8754 21.1384 32.6729 21.1836 32.2475" fill="#E9E9E9"/>
</g>
<g id="g94">
<path id="path96" d="M18.6108 32.5381C18.6599 32.524 19.6237 31.7694 19.6237 31.7694L20.7642 32.5952L18.6108 32.5381Z" fill="#E9E9E9"/>
</g>
<g id="g98">
<path id="path100" d="M20.5666 33.2415C20.2382 33.8427 19.8604 34.0695 19.6332 34.0318C19.3196 33.9771 19.0112 33.6638 18.7657 33.1498C18.6412 32.8884 18.6045 32.7508 18.5787 32.5303C19.0257 32.4859 19.3891 32.2573 19.6399 32.0238C19.9948 32.4037 20.4079 32.5582 20.7949 32.5861C20.7727 32.7808 20.73 32.9431 20.5666 33.2415ZM21.9957 31.8964C21.9051 31.7232 21.6913 31.6558 21.517 31.7447C21.42 31.7948 20.5723 32.192 20.0011 31.339L19.9874 31.0903C19.9863 31.0705 19.9824 31.0519 19.9786 31.0335C20.1641 30.9816 20.4012 30.8649 20.6471 30.6084C20.7829 30.4669 20.7783 30.2419 20.6365 30.1061C20.4954 29.9702 20.27 29.9748 20.1341 30.1166C19.901 30.3593 19.7337 30.3622 19.7355 30.3643C19.72 30.3597 19.7147 30.359 19.709 30.359C19.7037 30.359 19.6981 30.3608 19.6822 30.3593C19.3951 30.3533 19.2413 30.1533 19.2303 30.1385C19.1188 29.9787 18.9005 29.9388 18.7396 30.0478C18.577 30.1583 18.535 30.3791 18.6451 30.5417C18.7417 30.6839 18.9661 30.9005 19.2938 31.007C19.2818 31.0455 19.2755 31.0864 19.2779 31.1291L19.2906 31.3605C19.1273 31.569 18.6197 32.088 17.8622 31.6643C17.6904 31.569 17.4742 31.6297 17.3786 31.8012C17.2826 31.9726 17.344 32.1892 17.5155 32.2848C17.6319 32.3501 17.7444 32.3963 17.8548 32.4351C17.8887 32.7999 17.9197 33.0278 18.1244 33.456C18.5699 34.3888 19.1248 34.665 19.5115 34.732C19.5711 34.7423 19.6311 34.7476 19.6907 34.7476C20.2347 34.7476 20.7843 34.3253 21.1907 33.5827C21.462 33.086 21.4916 32.8112 21.517 32.5039C21.6416 32.4665 21.7559 32.4224 21.8472 32.3744C22.0201 32.283 22.0857 32.07 21.9957 31.8964Z" fill="#CCCCCC"/>
</g>
</g>
</svg>
