<svg xmlns="http://www.w3.org/2000/svg" width="35" height="35" viewBox="0 0 35 35" fill="none">
  <circle cx="17.5" cy="17.5" r="17.5" fill="#4169E1"/>
  <path fill-rule="evenodd" clip-rule="evenodd" d="M17.0179 7.19875C17.2841 6.93375 17.7159 6.93375 17.9821 7.19875L21.3912 10.5916C21.6575 10.8566 21.6575 11.2863 21.3912 11.5513C21.1249 11.8162 20.6932 11.8162 20.427 11.5513L18.1818 9.31679V19.2567C18.1818 19.6315 17.8766 19.9353 17.5 19.9353C17.1234 19.9353 16.8182 19.6315 16.8182 19.2567V9.31679L14.573 11.5513C14.3068 11.8162 13.8751 11.8162 13.6088 11.5513C13.3425 11.2863 13.3425 10.8566 13.6088 10.5916L17.0179 7.19875ZM12.3864 14.4643C12.1151 14.4643 11.855 14.5715 11.6632 14.7624C11.4714 14.9533 11.3636 15.2122 11.3636 15.4821V23.625C11.3636 23.895 11.4714 24.1538 11.6632 24.3447C11.855 24.5356 12.1151 24.6429 12.3864 24.6429H22.6136C22.8849 24.6429 23.145 24.5356 23.3368 24.3447C23.5286 24.1538 23.6364 23.895 23.6364 23.625V15.4821C23.6364 15.2122 23.5286 14.9533 23.3368 14.7624C23.145 14.5715 22.8849 14.4643 22.6136 14.4643H20.9091C20.5325 14.4643 20.2273 14.1605 20.2273 13.7857C20.2273 13.4109 20.5325 13.1071 20.9091 13.1071H22.6136C23.2465 13.1071 23.8535 13.3574 24.3011 13.8028C24.7486 14.2482 25 14.8523 25 15.4821V23.625C25 24.2549 24.7486 24.859 24.3011 25.3044C23.8535 25.7498 23.2465 26 22.6136 26H12.3864C11.7535 26 11.1465 25.7498 10.6989 25.3044C10.2514 24.859 10 24.2549 10 23.625V15.4821C10 14.8523 10.2514 14.2482 10.6989 13.8028C11.1465 13.3574 11.7535 13.1071 12.3864 13.1071H14.0909C14.4675 13.1071 14.7727 13.4109 14.7727 13.7857C14.7727 14.1605 14.4675 14.4643 14.0909 14.4643H12.3864Z" fill="white"/>
</svg>